<svg preserveAspectRatio="none" overflow="visible" style="display: block;" width="40.0004" height="35.7392" viewBox="0 0 40.0004 35.7392" fill="none" xmlns="http://www.w3.org/2000/svg">
<g id="Group">
<path id="Vector" d="M3.0241 30.6303L4.78815 33.6773C5.15469 34.3188 5.6816 34.8228 6.30017 35.1893C8.07191 32.9404 9.30522 31.2145 10.0001 30.0117C10.7053 28.7912 11.572 26.882 12.6004 24.2843C9.82913 23.9196 7.72906 23.7372 6.30017 23.7372C4.92898 23.7372 2.82892 23.9196 0 24.2843C0 24.9945 0.183279 25.7047 0.549834 26.3462L3.0241 30.6303Z" fill="#0066DA"/>
<path id="Vector_2" d="M33.7002 35.1893C34.3188 34.8228 34.8457 34.3188 35.2122 33.6773L35.9454 32.4173L39.4505 26.3462C39.8171 25.7047 40.0004 24.9945 40.0004 24.2843C37.1551 23.9196 35.0588 23.7372 33.7117 23.7372C32.2639 23.7372 30.1676 23.9196 27.4229 24.2843C28.4391 26.8963 29.2944 28.8054 29.9888 30.0117C30.6894 31.2287 31.9265 32.9546 33.7002 35.1893Z" fill="#EA4335"/>
<path id="Vector_3" d="M20.0002 11.4549C22.0502 8.97899 23.463 7.06984 24.2385 5.72743C24.863 4.6465 25.5503 2.92064 26.3004 0.549833C25.6818 0.183275 24.9716 0 24.2385 0H15.7619C15.0288 0 14.3186 0.206185 13.7 0.549833C14.6541 3.26891 15.4637 5.20403 16.1288 6.35521C16.8637 7.62737 18.1542 9.32726 20.0002 11.4549Z" fill="#00832D"/>
<path id="Vector_4" d="M27.4 24.2843H12.6003L6.30017 35.1893C6.91875 35.5559 7.62894 35.7392 8.36207 35.7392H31.6383C32.3715 35.7392 33.0817 35.533 33.7002 35.1893L27.4 24.2843Z" fill="#2684FC"/>
<path id="Vector_5" d="M20.0002 11.4549L13.7 0.549834C13.0815 0.916388 12.5545 1.42038 12.188 2.06189L0.549834 22.2224C0.183279 22.8639 0 23.5741 0 24.2843H12.6004L20.0002 11.4549Z" fill="#00AC47"/>
<path id="Vector_6" d="M33.6315 12.1422L27.8124 2.06189C27.4459 1.42038 26.9189 0.916388 26.3004 0.549834L20.0002 11.4549L27.4 24.2843H39.9775C39.9775 23.5741 39.7942 22.8639 39.4277 22.2224L33.6315 12.1422Z" fill="#FFBA00"/>
</g>
</svg>
